# xmcd
#
# Track frame offsets:
#	150
#	18232
#	34981
#	55064
#	72766
#	91570
#	105595
#	120701
#	134748
#	150981
#	166304
#
# Disc length: 2418 seconds
#
# Revision: 2
# Processed by: cddbd v1.5.2PL0 Copyright (c) Steve Scherf et al.
# Submitted via: audiograbber 1.83.01
#
DISCID=8309700b
DTITLE=Emerson Drive - Roll
DYEAR=2012
DGENRE=Country
TTITLE0=Let It Roll (featuring Doc Walker)
TTITLE1=We Are This Town
TTITLE2=Love Hangover
TTITLE3=She Always Gets What She Wants
TTITLE4=Never A Good Day For Goodbye
TTITLE5=With You
TTITLE6=We Fit Together
TTITLE7=This Is Our Time
TTITLE8=Alone Tonight
TTITLE9=She's My Kind Of Crazy
TTITLE10=Show Us Whatcha Got
EXTD=
EXTT0=
EXTT1=
EXTT2=
EXTT3=
EXTT4=
EXTT5=
EXTT6=
EXTT7=
EXTT8=
EXTT9=
EXTT10=
PLAYORDER=
